<svg xmlns="http://www.w3.org/2000/svg" xmlns:xlink="http://www.w3.org/1999/xlink" width="500" zoomAndPan="magnify" viewBox="0 0 375 374.999991" height="500" preserveAspectRatio="xMidYMid meet" version="1.0"><defs><clipPath id="13ad0de7ae"><path d="M 144.957031 0.445312 L 156.042969 0.445312 L 156.042969 58.886719 L 144.957031 58.886719 Z M 144.957031 0.445312 " clip-rule="nonzero"/></clipPath><clipPath id="39007fb13b"><path d="M 0.957031 0.445312 L 12.042969 0.445312 L 12.042969 58.886719 L 0.957031 58.886719 Z M 0.957031 0.445312 " clip-rule="nonzero"/></clipPath><clipPath id="1a11e20b69"><rect x="0" width="13" y="0" height="59"/></clipPath><clipPath id="a45cc55340"><path d="M 144.957031 242.007812 L 156.042969 242.007812 L 156.042969 300.445312 L 144.957031 300.445312 Z M 144.957031 242.007812 " clip-rule="nonzero"/></clipPath><clipPath id="360839b3ec"><path d="M 0.957031 0.0078125 L 12.042969 0.0078125 L 12.042969 58.445312 L 0.957031 58.445312 Z M 0.957031 0.0078125 " clip-rule="nonzero"/></clipPath><clipPath id="94046eb2d9"><rect x="0" width="13" y="0" height="59"/></clipPath><clipPath id="678b463cb9"><path d="M 0.503906 144.898438 L 58.941406 144.898438 L 58.941406 155.988281 L 0.503906 155.988281 Z M 0.503906 144.898438 " clip-rule="nonzero"/></clipPath><clipPath id="7a31e10d65"><path d="M 0.503906 0.898438 L 58.941406 0.898438 L 58.941406 11.988281 L 0.503906 11.988281 Z M 0.503906 0.898438 " clip-rule="nonzero"/></clipPath><clipPath id="cf8f8bda25"><rect x="0" width="59" y="0" height="12"/></clipPath><clipPath id="ca149fa086"><path d="M 144.960938 144.894531 L 300.507812 144.894531 L 300.507812 155.984375 L 144.960938 155.984375 Z M 144.960938 144.894531 " clip-rule="nonzero"/></clipPath><clipPath id="1ee4197130"><path d="M 0.960938 0.894531 L 156.507812 0.894531 L 156.507812 11.984375 L 0.960938 11.984375 Z M 0.960938 0.894531 " clip-rule="nonzero"/></clipPath><clipPath id="ce2a17a75b"><rect x="0" width="157" y="0" height="12"/></clipPath><clipPath id="45f855e756"><path d="M 86 10 L 120 10 L 120 69 L 86 69 Z M 86 10 " clip-rule="nonzero"/></clipPath><clipPath id="b7b9c70379"><path d="M 86.621094 14.617188 L 96.820312 10.269531 L 119.722656 64.035156 L 109.519531 68.378906 Z M 86.621094 14.617188 " clip-rule="nonzero"/></clipPath><clipPath id="d73e85ecc9"><path d="M 0.601562 0.160156 L 33.960938 0.160156 L 33.960938 58.480469 L 0.601562 58.480469 Z M 0.601562 0.160156 " clip-rule="nonzero"/></clipPath><clipPath id="32c438d08f"><path d="M 0.621094 4.617188 L 10.820312 0.269531 L 33.722656 54.035156 L 23.519531 58.378906 Z M 0.621094 4.617188 " clip-rule="nonzero"/></clipPath><clipPath id="d903d77d17"><rect x="0" width="34" y="0" height="59"/></clipPath><clipPath id="e704a772d1"><path d="M 181 232 L 215 232 L 215 291 L 181 291 Z M 181 232 " clip-rule="nonzero"/></clipPath><clipPath id="bdeb89aaf1"><path d="M 181.28125 236.859375 L 191.484375 232.511719 L 214.382812 286.277344 L 204.183594 290.621094 Z M 181.28125 236.859375 " clip-rule="nonzero"/></clipPath><clipPath id="203138754e"><path d="M 0.160156 0.398438 L 33.519531 0.398438 L 33.519531 58.71875 L 0.160156 58.71875 Z M 0.160156 0.398438 " clip-rule="nonzero"/></clipPath><clipPath id="5a63f16f9a"><path d="M 0.28125 4.859375 L 10.484375 0.511719 L 33.382812 54.277344 L 23.183594 58.621094 Z M 0.28125 4.859375 " clip-rule="nonzero"/></clipPath><clipPath id="ba83fa6ef5"><rect x="0" width="34" y="0" height="59"/></clipPath><clipPath id="8f2157cf0b"><path d="M 10 181 L 69 181 L 69 215 L 10 215 Z M 10 181 " clip-rule="nonzero"/></clipPath><clipPath id="f770d5c9ce"><path d="M 14.675781 214.324219 L 10.328125 204.121094 L 64.09375 181.21875 L 68.4375 191.421875 Z M 14.675781 214.324219 " clip-rule="nonzero"/></clipPath><clipPath id="02bf2d2268"><path d="M 0.28125 0.0390625 L 58.601562 0.0390625 L 58.601562 33.398438 L 0.28125 33.398438 Z M 0.28125 0.0390625 " clip-rule="nonzero"/></clipPath><clipPath id="4450b13bec"><path d="M 4.675781 33.324219 L 0.328125 23.121094 L 54.09375 0.21875 L 58.4375 10.421875 Z M 4.675781 33.324219 " clip-rule="nonzero"/></clipPath><clipPath id="30f139b619"><rect x="0" width="59" y="0" height="34"/></clipPath><clipPath id="3cc3e6ebef"><path d="M 232 86 L 291 86 L 291 120 L 232 120 Z M 232 86 " clip-rule="nonzero"/></clipPath><clipPath id="a6d68b7c36"><path d="M 236.917969 119.660156 L 232.570312 109.457031 L 286.335938 86.558594 L 290.679688 96.761719 Z M 236.917969 119.660156 " clip-rule="nonzero"/></clipPath><clipPath id="8ae493e5da"><path d="M 0.519531 0.480469 L 58.839844 0.480469 L 58.839844 33.839844 L 0.519531 33.839844 Z M 0.519531 0.480469 " clip-rule="nonzero"/></clipPath><clipPath id="5d0a36ba71"><path d="M 4.917969 33.660156 L 0.570312 23.457031 L 54.335938 0.558594 L 58.679688 10.761719 Z M 4.917969 33.660156 " clip-rule="nonzero"/></clipPath><clipPath id="75d9b18340"><rect x="0" width="59" y="0" height="34"/></clipPath><clipPath id="0b0071d567"><path d="M 40 40 L 90 40 L 90 90 L 40 90 Z M 40 40 " clip-rule="nonzero"/></clipPath><clipPath id="8d9a20ef80"><path d="M 40.515625 48.300781 L 48.359375 40.457031 L 89.679688 81.78125 L 81.839844 89.621094 Z M 40.515625 48.300781 " clip-rule="nonzero"/></clipPath><clipPath id="f2e89501d1"><path d="M 0.28125 0.398438 L 49.71875 0.398438 L 49.71875 49.839844 L 0.28125 49.839844 Z M 0.28125 0.398438 " clip-rule="nonzero"/></clipPath><clipPath id="8d1c00033b"><path d="M 0.515625 8.300781 L 8.359375 0.457031 L 49.679688 41.78125 L 41.839844 49.621094 Z M 0.515625 8.300781 " clip-rule="nonzero"/></clipPath><clipPath id="2782baec2f"><rect x="0" width="50" y="0" height="50"/></clipPath><clipPath id="63eebe9df8"><path d="M 211 211 L 261 211 L 261 261 L 211 261 Z M 211 211 " clip-rule="nonzero"/></clipPath><clipPath id="a06b4ffe29"><path d="M 211.328125 219.109375 L 219.167969 211.269531 L 260.492188 252.589844 L 252.648438 260.433594 Z M 211.328125 219.109375 " clip-rule="nonzero"/></clipPath><clipPath id="43c0c68ee1"><path d="M 0.160156 0.0390625 L 49.601562 0.0390625 L 49.601562 49.480469 L 0.160156 49.480469 Z M 0.160156 0.0390625 " clip-rule="nonzero"/></clipPath><clipPath id="3e95c7800a"><path d="M 0.328125 8.109375 L 8.167969 0.269531 L 49.492188 41.589844 L 41.648438 49.433594 Z M 0.328125 8.109375 " clip-rule="nonzero"/></clipPath><clipPath id="1b0f0d3995"><rect x="0" width="50" y="0" height="50"/></clipPath><clipPath id="a58aae3200"><path d="M 40 211 L 90 211 L 90 261 L 40 261 Z M 40 211 " clip-rule="nonzero"/></clipPath><clipPath id="494ba07e3f"><path d="M 48.359375 260.425781 L 40.515625 252.582031 L 81.839844 211.261719 L 89.679688 219.101562 Z M 48.359375 260.425781 " clip-rule="nonzero"/></clipPath><clipPath id="ecdaeee934"><path d="M 0.28125 0.0390625 L 49.71875 0.0390625 L 49.71875 49.480469 L 0.28125 49.480469 Z M 0.28125 0.0390625 " clip-rule="nonzero"/></clipPath><clipPath id="2bcb85b3f2"><path d="M 8.359375 49.425781 L 0.515625 41.582031 L 41.839844 0.261719 L 49.679688 8.101562 Z M 8.359375 49.425781 " clip-rule="nonzero"/></clipPath><clipPath id="9670c6faf5"><rect x="0" width="50" y="0" height="50"/></clipPath><clipPath id="132cc7a14c"><path d="M 211 40 L 261 40 L 261 90 L 211 90 Z M 211 40 " clip-rule="nonzero"/></clipPath><clipPath id="71fd86385c"><path d="M 219.167969 89.613281 L 211.328125 81.773438 L 252.648438 40.453125 L 260.492188 48.292969 Z M 219.167969 89.613281 " clip-rule="nonzero"/></clipPath><clipPath id="b42b204d4e"><path d="M 0.160156 0.398438 L 49.601562 0.398438 L 49.601562 49.839844 L 0.160156 49.839844 Z M 0.160156 0.398438 " clip-rule="nonzero"/></clipPath><clipPath id="3da22e49ac"><path d="M 8.167969 49.613281 L 0.328125 41.773438 L 41.648438 0.453125 L 49.492188 8.292969 Z M 8.167969 49.613281 " clip-rule="nonzero"/></clipPath><clipPath id="ed968db4d2"><rect x="0" width="50" y="0" height="50"/></clipPath><clipPath id="3858b3da69"><path d="M 9 89 L 68 89 L 68 122 L 9 122 Z M 9 89 " clip-rule="nonzero"/></clipPath><clipPath id="d2ed2bf445"><path d="M 9.285156 99.570312 L 13.429688 89.28125 L 67.636719 111.105469 L 63.496094 121.394531 Z M 9.285156 99.570312 " clip-rule="nonzero"/></clipPath><clipPath id="94557b6441"><path d="M 0.078125 0.121094 L 58.640625 0.121094 L 58.640625 32.519531 L 0.078125 32.519531 Z M 0.078125 0.121094 " clip-rule="nonzero"/></clipPath><clipPath id="53992e4691"><path d="M 0.285156 10.570312 L 4.429688 0.28125 L 58.636719 22.105469 L 54.496094 32.394531 Z M 0.285156 10.570312 " clip-rule="nonzero"/></clipPath><clipPath id="d1565df1cf"><rect x="0" width="59" y="0" height="33"/></clipPath><clipPath id="4c8b6ede11"><path d="M 233 179 L 292 179 L 292 212 L 233 212 Z M 233 179 " clip-rule="nonzero"/></clipPath><clipPath id="67dc2786eb"><path d="M 233.371094 189.78125 L 237.511719 179.496094 L 291.722656 201.316406 L 287.582031 211.605469 Z M 233.371094 189.78125 " clip-rule="nonzero"/></clipPath><clipPath id="bc970a1ab5"><path d="M 0.238281 0.359375 L 58.800781 0.359375 L 58.800781 32.761719 L 0.238281 32.761719 Z M 0.238281 0.359375 " clip-rule="nonzero"/></clipPath><clipPath id="dd67d66010"><path d="M 0.371094 10.78125 L 4.511719 0.496094 L 58.722656 22.316406 L 54.582031 32.605469 Z M 0.371094 10.78125 " clip-rule="nonzero"/></clipPath><clipPath id="c5d59cd966"><rect x="0" width="59" y="0" height="33"/></clipPath><clipPath id="dfd8a5bf4e"><path d="M 89 233 L 122 233 L 122 292 L 89 292 Z M 89 233 " clip-rule="nonzero"/></clipPath><clipPath id="4c89b89c9b"><path d="M 99.628906 291.65625 L 89.339844 287.515625 L 111.164062 233.304688 L 121.453125 237.445312 Z M 99.628906 291.65625 " clip-rule="nonzero"/></clipPath><clipPath id="fd650ff6cd"><path d="M 0.238281 0.121094 L 32.640625 0.121094 L 32.640625 58.679688 L 0.238281 58.679688 Z M 0.238281 0.121094 " clip-rule="nonzero"/></clipPath><clipPath id="e8cc3e42b3"><path d="M 10.628906 58.65625 L 0.339844 54.515625 L 22.164062 0.304688 L 32.453125 4.445312 Z M 10.628906 58.65625 " clip-rule="nonzero"/></clipPath><clipPath id="b6e9f30213"><rect x="0" width="33" y="0" height="59"/></clipPath><clipPath id="1805115907"><path d="M 179 9 L 212 9 L 212 68 L 179 68 Z M 179 9 " clip-rule="nonzero"/></clipPath><clipPath id="0dbb54a6b6"><path d="M 189.839844 67.570312 L 179.550781 63.429688 L 201.375 9.21875 L 211.664062 13.359375 Z M 189.839844 67.570312 " clip-rule="nonzero"/></clipPath><clipPath id="b5e9b87a53"><path d="M 0.480469 0.199219 L 32.878906 0.199219 L 32.878906 58.761719 L 0.480469 58.761719 Z M 0.480469 0.199219 " clip-rule="nonzero"/></clipPath><clipPath id="acda159f08"><path d="M 10.839844 58.570312 L 0.550781 54.429688 L 22.375 0.21875 L 32.664062 4.359375 Z M 10.839844 58.570312 " clip-rule="nonzero"/></clipPath><clipPath id="ab2e8c6147"><rect x="0" width="33" y="0" height="59"/></clipPath><clipPath id="347ecc2f8f"><rect x="0" width="301" y="0" height="301"/></clipPath></defs><g transform="matrix(1, 0, 0, 1, 37, 40)"><g clip-path="url(#347ecc2f8f)"><g clip-path="url(#13ad0de7ae)"><g transform="matrix(1, 0, 0, 1, 144, 0)"><g clip-path="url(#1a11e20b69)"><g clip-path="url(#39007fb13b)"><path fill="#ffffff" d="M 0.957031 0.445312 L 12.042969 0.445312 L 12.042969 58.882812 L 0.957031 58.882812 Z M 0.957031 0.445312 " fill-opacity="1" fill-rule="nonzero"/></g></g></g></g><g clip-path="url(#a45cc55340)"><g transform="matrix(1, 0, 0, 1, 144, 242)"><g clip-path="url(#94046eb2d9)"><g clip-path="url(#360839b3ec)"><path fill="#ffffff" d="M 0.957031 0.0078125 L 12.042969 0.0078125 L 12.042969 58.445312 L 0.957031 58.445312 Z M 0.957031 0.0078125 " fill-opacity="1" fill-rule="nonzero"/></g></g></g></g><g clip-path="url(#678b463cb9)"><g transform="matrix(1, 0, 0, 1, 0, 144)"><g clip-path="url(#cf8f8bda25)"><g clip-path="url(#7a31e10d65)"><path fill="#ffffff" d="M 0.503906 11.988281 L 0.503906 0.898438 L 58.941406 0.898438 L 58.941406 11.988281 Z M 0.503906 11.988281 " fill-opacity="1" fill-rule="nonzero"/></g></g></g></g><g clip-path="url(#ca149fa086)"><g transform="matrix(1, 0, 0, 1, 144, 144)"><g clip-path="url(#ce2a17a75b)"><g clip-path="url(#1ee4197130)"><path fill="#1f48ff" d="M 0.960938 11.984375 L 0.960938 0.894531 L 156.519531 0.894531 L 156.519531 11.984375 Z M 0.960938 11.984375 " fill-opacity="1" fill-rule="nonzero"/></g></g></g></g><g clip-path="url(#45f855e756)"><g clip-path="url(#b7b9c70379)"><g transform="matrix(1, 0, 0, 1, 86, 10)"><g clip-path="url(#d903d77d17)"><g clip-path="url(#d73e85ecc9)"><g clip-path="url(#32c438d08f)"><path fill="#ffffff" d="M 0.621094 4.617188 L 10.820312 0.269531 L 33.722656 54.035156 L 23.519531 58.378906 Z M 0.621094 4.617188 " fill-opacity="1" fill-rule="nonzero"/></g></g></g></g></g></g><g clip-path="url(#e704a772d1)"><g clip-path="url(#bdeb89aaf1)"><g transform="matrix(1, 0, 0, 1, 181, 232)"><g clip-path="url(#ba83fa6ef5)"><g clip-path="url(#203138754e)"><g clip-path="url(#5a63f16f9a)"><path fill="#ffffff" d="M 0.28125 4.859375 L 10.484375 0.511719 L 33.382812 54.273438 L 23.179688 58.621094 Z M 0.28125 4.859375 " fill-opacity="1" fill-rule="nonzero"/></g></g></g></g></g></g><g clip-path="url(#8f2157cf0b)"><g clip-path="url(#f770d5c9ce)"><g transform="matrix(1, 0, 0, 1, 10, 181)"><g clip-path="url(#30f139b619)"><g clip-path="url(#02bf2d2268)"><g clip-path="url(#4450b13bec)"><path fill="#ffffff" d="M 4.675781 33.324219 L 0.328125 23.121094 L 54.09375 0.21875 L 58.4375 10.421875 Z M 4.675781 33.324219 " fill-opacity="1" fill-rule="nonzero"/></g></g></g></g></g></g><g clip-path="url(#3cc3e6ebef)"><g clip-path="url(#a6d68b7c36)"><g transform="matrix(1, 0, 0, 1, 232, 86)"><g clip-path="url(#75d9b18340)"><g clip-path="url(#8ae493e5da)"><g clip-path="url(#5d0a36ba71)"><path fill="#ffffff" d="M 4.917969 33.660156 L 0.570312 23.457031 L 54.332031 0.558594 L 58.679688 10.761719 Z M 4.917969 33.660156 " fill-opacity="1" fill-rule="nonzero"/></g></g></g></g></g></g><g clip-path="url(#0b0071d567)"><g clip-path="url(#8d9a20ef80)"><g transform="matrix(1, 0, 0, 1, 40, 40)"><g clip-path="url(#2782baec2f)"><g clip-path="url(#f2e89501d1)"><g clip-path="url(#8d1c00033b)"><path fill="#ffffff" d="M 0.515625 8.300781 L 8.359375 0.457031 L 49.679688 41.78125 L 41.835938 49.621094 Z M 0.515625 8.300781 " fill-opacity="1" fill-rule="nonzero"/></g></g></g></g></g></g><g clip-path="url(#63eebe9df8)"><g clip-path="url(#a06b4ffe29)"><g transform="matrix(1, 0, 0, 1, 211, 211)"><g clip-path="url(#1b0f0d3995)"><g clip-path="url(#43c0c68ee1)"><g clip-path="url(#3e95c7800a)"><path fill="#ffffff" d="M 0.328125 8.109375 L 8.167969 0.269531 L 49.488281 41.589844 L 41.648438 49.429688 Z M 0.328125 8.109375 " fill-opacity="1" fill-rule="nonzero"/></g></g></g></g></g></g><g clip-path="url(#a58aae3200)"><g clip-path="url(#494ba07e3f)"><g transform="matrix(1, 0, 0, 1, 40, 211)"><g clip-path="url(#9670c6faf5)"><g clip-path="url(#ecdaeee934)"><g clip-path="url(#2bcb85b3f2)"><path fill="#ffffff" d="M 8.359375 49.425781 L 0.515625 41.582031 L 41.835938 0.261719 L 49.679688 8.105469 Z M 8.359375 49.425781 " fill-opacity="1" fill-rule="nonzero"/></g></g></g></g></g></g><g clip-path="url(#132cc7a14c)"><g clip-path="url(#71fd86385c)"><g transform="matrix(1, 0, 0, 1, 211, 40)"><g clip-path="url(#ed968db4d2)"><g clip-path="url(#b42b204d4e)"><g clip-path="url(#3da22e49ac)"><path fill="#ffffff" d="M 8.167969 49.613281 L 0.328125 41.773438 L 41.648438 0.453125 L 49.488281 8.292969 Z M 8.167969 49.613281 " fill-opacity="1" fill-rule="nonzero"/></g></g></g></g></g></g><g clip-path="url(#3858b3da69)"><g clip-path="url(#d2ed2bf445)"><g transform="matrix(1, 0, 0, 1, 9, 89)"><g clip-path="url(#d1565df1cf)"><g clip-path="url(#94557b6441)"><g clip-path="url(#53992e4691)"><path fill="#ffffff" d="M 0.285156 10.570312 L 4.429688 0.28125 L 58.636719 22.105469 L 54.496094 32.394531 Z M 0.285156 10.570312 " fill-opacity="1" fill-rule="nonzero"/></g></g></g></g></g></g><g clip-path="url(#4c8b6ede11)"><g clip-path="url(#67dc2786eb)"><g transform="matrix(1, 0, 0, 1, 233, 179)"><g clip-path="url(#c5d59cd966)"><g clip-path="url(#bc970a1ab5)"><g clip-path="url(#dd67d66010)"><path fill="#ffffff" d="M 0.371094 10.78125 L 4.511719 0.496094 L 58.722656 22.316406 L 54.578125 32.605469 Z M 0.371094 10.78125 " fill-opacity="1" fill-rule="nonzero"/></g></g></g></g></g></g><g clip-path="url(#dfd8a5bf4e)"><g clip-path="url(#4c89b89c9b)"><g transform="matrix(1, 0, 0, 1, 89, 233)"><g clip-path="url(#b6e9f30213)"><g clip-path="url(#fd650ff6cd)"><g clip-path="url(#e8cc3e42b3)"><path fill="#ffffff" d="M 10.628906 58.65625 L 0.339844 54.515625 L 22.164062 0.304688 L 32.449219 4.445312 Z M 10.628906 58.65625 " fill-opacity="1" fill-rule="nonzero"/></g></g></g></g></g></g><g clip-path="url(#1805115907)"><g clip-path="url(#0dbb54a6b6)"><g transform="matrix(1, 0, 0, 1, 179, 9)"><g clip-path="url(#ab2e8c6147)"><g clip-path="url(#b5e9b87a53)"><g clip-path="url(#acda159f08)"><path fill="#ffffff" d="M 10.839844 58.570312 L 0.550781 54.429688 L 22.375 0.21875 L 32.664062 4.363281 Z M 10.839844 58.570312 " fill-opacity="1" fill-rule="nonzero"/></g></g></g></g></g></g></g></g></svg>