<svg xmlns="http://www.w3.org/2000/svg" xmlns:xlink="http://www.w3.org/1999/xlink" width="500" zoomAndPan="magnify" viewBox="0 0 375 374.999991" height="500" preserveAspectRatio="xMidYMid meet" version="1.0"><defs><clipPath id="a39004da9e"><path d="M 182.511719 37.5 L 193.648438 37.5 L 193.648438 96.183594 L 182.511719 96.183594 Z M 182.511719 37.5 " clip-rule="nonzero"/></clipPath><clipPath id="0fef72c3eb"><path d="M 0.511719 0.5 L 11.648438 0.5 L 11.648438 59.183594 L 0.511719 59.183594 Z M 0.511719 0.5 " clip-rule="nonzero"/></clipPath><clipPath id="aa2a8ba774"><rect x="0" width="12" y="0" height="60"/></clipPath><clipPath id="44b4ba16b2"><path d="M 182.511719 280.078125 L 193.648438 280.078125 L 193.648438 338.761719 L 182.511719 338.761719 Z M 182.511719 280.078125 " clip-rule="nonzero"/></clipPath><clipPath id="2a4c5ace24"><path d="M 0.511719 0.078125 L 11.648438 0.078125 L 11.648438 58.761719 L 0.511719 58.761719 Z M 0.511719 0.078125 " clip-rule="nonzero"/></clipPath><clipPath id="8f9601d12c"><rect x="0" width="12" y="0" height="59"/></clipPath><clipPath id="b12be924a0"><path d="M 38.753906 182.554688 L 96.949219 182.554688 L 96.949219 193.691406 L 38.753906 193.691406 Z M 38.753906 182.554688 " clip-rule="nonzero"/></clipPath><clipPath id="019a5bfc41"><path d="M 0.753906 0.554688 L 58.949219 0.554688 L 58.949219 11.691406 L 0.753906 11.691406 Z M 0.753906 0.554688 " clip-rule="nonzero"/></clipPath><clipPath id="c093987b9f"><rect x="0" width="59" y="0" height="12"/></clipPath><clipPath id="607f4b81c3"><path d="M 182.605469 182.558594 L 337.503906 182.558594 L 337.503906 193.691406 L 182.605469 193.691406 Z M 182.605469 182.558594 " clip-rule="nonzero"/></clipPath><clipPath id="e7775c9eda"><path d="M 0.605469 0.558594 L 155.503906 0.558594 L 155.503906 11.691406 L 0.605469 11.691406 Z M 0.605469 0.558594 " clip-rule="nonzero"/></clipPath><clipPath id="e0b8ae3768"><rect x="0" width="156" y="0" height="12"/></clipPath><clipPath id="4e4872d413"><path d="M 124 47 L 158 47 L 158 106 L 124 106 Z M 124 47 " clip-rule="nonzero"/></clipPath><clipPath id="04105a52de"><path d="M 124.234375 51.730469 L 134.480469 47.363281 L 157.476562 101.355469 L 147.230469 105.71875 Z M 124.234375 51.730469 " clip-rule="nonzero"/></clipPath><clipPath id="40a61d1d8f"><path d="M 0.078125 0.28125 L 33.679688 0.28125 L 33.679688 58.839844 L 0.078125 58.839844 Z M 0.078125 0.28125 " clip-rule="nonzero"/></clipPath><clipPath id="d1a15c918d"><path d="M 0.234375 4.730469 L 10.480469 0.363281 L 33.476562 54.355469 L 23.230469 58.71875 Z M 0.234375 4.730469 " clip-rule="nonzero"/></clipPath><clipPath id="b908d27ab7"><rect x="0" width="34" y="0" height="59"/></clipPath><clipPath id="7d1769944b"><path d="M 218 270 L 252 270 L 252 329 L 218 329 Z M 218 270 " clip-rule="nonzero"/></clipPath><clipPath id="1f6a7fd888"><path d="M 218.5 274.90625 L 228.746094 270.542969 L 251.742188 324.53125 L 241.496094 328.894531 Z M 218.5 274.90625 " clip-rule="nonzero"/></clipPath><clipPath id="df40b2f300"><path d="M 0.398438 0.480469 L 33.761719 0.480469 L 33.761719 59 L 0.398438 59 Z M 0.398438 0.480469 " clip-rule="nonzero"/></clipPath><clipPath id="d02203d68e"><path d="M 0.5 4.90625 L 10.746094 0.542969 L 33.742188 54.53125 L 23.496094 58.894531 Z M 0.5 4.90625 " clip-rule="nonzero"/></clipPath><clipPath id="cdba9ef1cc"><rect x="0" width="34" y="0" height="59"/></clipPath><clipPath id="291abda816"><path d="M 48 219 L 107 219 L 107 253 L 48 253 Z M 48 219 " clip-rule="nonzero"/></clipPath><clipPath id="838705393b"><path d="M 52.898438 252.171875 L 48.535156 241.925781 L 102.039062 219.136719 L 106.402344 229.382812 Z M 52.898438 252.171875 " clip-rule="nonzero"/></clipPath><clipPath id="3f6a249355"><path d="M 0.480469 0.121094 L 58.558594 0.121094 L 58.558594 33.238281 L 0.480469 33.238281 Z M 0.480469 0.121094 " clip-rule="nonzero"/></clipPath><clipPath id="59d6132502"><path d="M 4.898438 33.171875 L 0.535156 22.925781 L 54.039062 0.136719 L 58.402344 10.382812 Z M 4.898438 33.171875 " clip-rule="nonzero"/></clipPath><clipPath id="fc3c38fa2e"><rect x="0" width="59" y="0" height="34"/></clipPath><clipPath id="ace29d6b19"><path d="M 269 124 L 328 124 L 328 158 L 269 158 Z M 269 124 " clip-rule="nonzero"/></clipPath><clipPath id="b749884337"><path d="M 274.214844 157.113281 L 269.851562 146.867188 L 323.351562 124.078125 L 327.71875 134.324219 Z M 274.214844 157.113281 " clip-rule="nonzero"/></clipPath><clipPath id="11c7bfb2ee"><path d="M 0.761719 0 L 58.839844 0 L 58.839844 33.199219 L 0.761719 33.199219 Z M 0.761719 0 " clip-rule="nonzero"/></clipPath><clipPath id="2a4691b37d"><path d="M 5.214844 33.113281 L 0.851562 22.867188 L 54.351562 0.078125 L 58.71875 10.324219 Z M 5.214844 33.113281 " clip-rule="nonzero"/></clipPath><clipPath id="434b85354a"><rect x="0" width="59" y="0" height="34"/></clipPath><clipPath id="a79698b4dc"><path d="M 78 77 L 128 77 L 128 127 L 78 127 Z M 78 77 " clip-rule="nonzero"/></clipPath><clipPath id="ef9ad1903d"><path d="M 78.601562 85.757812 L 86.476562 77.882812 L 127.558594 118.96875 L 119.683594 126.84375 Z M 78.601562 85.757812 " clip-rule="nonzero"/></clipPath><clipPath id="989d999373"><path d="M 0.480469 0.761719 L 49.679688 0.761719 L 49.679688 49.960938 L 0.480469 49.960938 Z M 0.480469 0.761719 " clip-rule="nonzero"/></clipPath><clipPath id="4ed04625bd"><path d="M 0.601562 8.757812 L 8.476562 0.882812 L 49.558594 41.96875 L 41.683594 49.84375 Z M 0.601562 8.757812 " clip-rule="nonzero"/></clipPath><clipPath id="04cd3e0329"><rect x="0" width="50" y="0" height="50"/></clipPath><clipPath id="063fa71a1d"><path d="M 248 249 L 298 249 L 298 299 L 248 299 Z M 248 249 " clip-rule="nonzero"/></clipPath><clipPath id="6394d54c2b"><path d="M 248.699219 257.289062 L 256.574219 249.414062 L 297.65625 290.496094 L 289.78125 298.371094 Z M 248.699219 257.289062 " clip-rule="nonzero"/></clipPath><clipPath id="5e68e8e4e7"><path d="M 0.640625 0.359375 L 49.839844 0.359375 L 49.839844 49.558594 L 0.640625 49.558594 Z M 0.640625 0.359375 " clip-rule="nonzero"/></clipPath><clipPath id="9a219bbb6e"><path d="M 0.699219 8.289062 L 8.574219 0.414062 L 49.65625 41.496094 L 41.78125 49.371094 Z M 0.699219 8.289062 " clip-rule="nonzero"/></clipPath><clipPath id="550e60569c"><rect x="0" width="50" y="0" height="50"/></clipPath><clipPath id="51a6f95cf2"><path d="M 78 249 L 128 249 L 128 299 L 78 299 Z M 78 249 " clip-rule="nonzero"/></clipPath><clipPath id="b32808b20c"><path d="M 86.058594 298.574219 L 78.1875 290.699219 L 119.683594 249.203125 L 127.554688 257.078125 Z M 86.058594 298.574219 " clip-rule="nonzero"/></clipPath><clipPath id="e845b75bb2"><path d="M 0 0.121094 L 49.679688 0.121094 L 49.679688 49.800781 L 0 49.800781 Z M 0 0.121094 " clip-rule="nonzero"/></clipPath><clipPath id="c1bfd72e61"><path d="M 8.058594 49.574219 L 0.1875 41.699219 L 41.683594 0.203125 L 49.554688 8.078125 Z M 8.058594 49.574219 " clip-rule="nonzero"/></clipPath><clipPath id="ad1615a64e"><rect x="0" width="50" y="0" height="50"/></clipPath><clipPath id="c4817cc17e"><path d="M 248 77 L 298 77 L 298 128 L 248 128 Z M 248 77 " clip-rule="nonzero"/></clipPath><clipPath id="f667ce5244"><path d="M 256.15625 127.042969 L 248.285156 119.167969 L 289.777344 77.671875 L 297.652344 85.546875 Z M 256.15625 127.042969 " clip-rule="nonzero"/></clipPath><clipPath id="1c30c8297b"><path d="M 0.160156 0.519531 L 49.839844 0.519531 L 49.839844 50.199219 L 0.160156 50.199219 Z M 0.160156 0.519531 " clip-rule="nonzero"/></clipPath><clipPath id="ae7c419145"><path d="M 8.15625 50.042969 L 0.285156 42.167969 L 41.777344 0.671875 L 49.652344 8.546875 Z M 8.15625 50.042969 " clip-rule="nonzero"/></clipPath><clipPath id="0c57aac7ab"><rect x="0" width="50" y="0" height="51"/></clipPath><clipPath id="b34fbb8057"><path d="M 47 126 L 106 126 L 106 159 L 47 159 Z M 47 126 " clip-rule="nonzero"/></clipPath><clipPath id="afc3097184"><path d="M 47.5 137.136719 L 51.660156 126.804688 L 105.609375 148.523438 L 101.449219 158.855469 Z M 47.5 137.136719 " clip-rule="nonzero"/></clipPath><clipPath id="f106d6ff20"><path d="M 0.28125 0.71875 L 58.839844 0.71875 L 58.839844 32.878906 L 0.28125 32.878906 Z M 0.28125 0.71875 " clip-rule="nonzero"/></clipPath><clipPath id="80758d98c9"><path d="M 0.5 11.136719 L 4.660156 0.804688 L 58.609375 22.523438 L 54.449219 32.855469 Z M 0.5 11.136719 " clip-rule="nonzero"/></clipPath><clipPath id="5f23f419fd"><rect x="0" width="59" y="0" height="33"/></clipPath><clipPath id="de1ecb3114"><path d="M 270 217 L 329 217 L 329 250 L 270 250 Z M 270 217 " clip-rule="nonzero"/></clipPath><clipPath id="852efdfcc3"><path d="M 270.648438 227.730469 L 274.808594 217.398438 L 328.757812 239.117188 L 324.597656 249.449219 Z M 270.648438 227.730469 " clip-rule="nonzero"/></clipPath><clipPath id="f4e38b8e0d"><path d="M 0.480469 0.199219 L 58.800781 0.199219 L 58.800781 32.601562 L 0.480469 32.601562 Z M 0.480469 0.199219 " clip-rule="nonzero"/></clipPath><clipPath id="1481929242"><path d="M 0.648438 10.730469 L 4.808594 0.398438 L 58.757812 22.117188 L 54.597656 32.449219 Z M 0.648438 10.730469 " clip-rule="nonzero"/></clipPath><clipPath id="33a824c471"><rect x="0" width="59" y="0" height="33"/></clipPath><clipPath id="c4711be897"><path d="M 126 271 L 160 271 L 160 330 L 126 330 Z M 126 271 " clip-rule="nonzero"/></clipPath><clipPath id="7a229f7109"><path d="M 137.277344 329.933594 L 126.949219 325.777344 L 148.863281 271.339844 L 159.195312 275.496094 Z M 137.277344 329.933594 " clip-rule="nonzero"/></clipPath><clipPath id="63f19dc893"><path d="M 0.71875 0.199219 L 33.359375 0.199219 L 33.359375 59 L 0.71875 59 Z M 0.71875 0.199219 " clip-rule="nonzero"/></clipPath><clipPath id="6501c3920a"><path d="M 11.277344 58.933594 L 0.949219 54.777344 L 22.863281 0.339844 L 33.195312 4.496094 Z M 11.277344 58.933594 " clip-rule="nonzero"/></clipPath><clipPath id="4bad633648"><rect x="0" width="34" y="0" height="59"/></clipPath><clipPath id="24718b29f7"><path d="M 216 46 L 250 46 L 250 105 L 216 105 Z M 216 46 " clip-rule="nonzero"/></clipPath><clipPath id="95b1d8c805"><path d="M 227.113281 104.90625 L 216.785156 100.75 L 238.699219 46.308594 L 249.03125 50.46875 Z M 227.113281 104.90625 " clip-rule="nonzero"/></clipPath><clipPath id="4fb47614e0"><path d="M 0.71875 0.078125 L 33.121094 0.078125 L 33.121094 59 L 0.71875 59 Z M 0.71875 0.078125 " clip-rule="nonzero"/></clipPath><clipPath id="7f0fe4beaa"><path d="M 11.113281 58.90625 L 0.785156 54.75 L 22.699219 0.308594 L 33.03125 4.46875 Z M 11.113281 58.90625 " clip-rule="nonzero"/></clipPath><clipPath id="11fa824ae6"><rect x="0" width="34" y="0" height="59"/></clipPath></defs><g clip-path="url(#a39004da9e)"><g transform="matrix(1, 0, 0, 1, 182, 37)"><g clip-path="url(#aa2a8ba774)"><g clip-path="url(#0fef72c3eb)"><path fill="#ffffff" d="M 0.511719 0.5 L 11.648438 0.5 L 11.648438 59.183594 L 0.511719 59.183594 Z M 0.511719 0.5 " fill-opacity="1" fill-rule="nonzero"/></g></g></g></g><g clip-path="url(#44b4ba16b2)"><g transform="matrix(1, 0, 0, 1, 182, 280)"><g clip-path="url(#8f9601d12c)"><g clip-path="url(#2a4c5ace24)"><path fill="#ffffff" d="M 0.511719 0.078125 L 11.648438 0.078125 L 11.648438 58.761719 L 0.511719 58.761719 Z M 0.511719 0.078125 " fill-opacity="1" fill-rule="nonzero"/></g></g></g></g><g clip-path="url(#b12be924a0)"><g transform="matrix(1, 0, 0, 1, 38, 182)"><g clip-path="url(#c093987b9f)"><g clip-path="url(#019a5bfc41)"><path fill="#ffffff" d="M 0.753906 11.691406 L 0.753906 0.554688 L 58.960938 0.554688 L 58.960938 11.691406 Z M 0.753906 11.691406 " fill-opacity="1" fill-rule="nonzero"/></g></g></g></g><g clip-path="url(#607f4b81c3)"><g transform="matrix(1, 0, 0, 1, 182, 182)"><g clip-path="url(#e0b8ae3768)"><g clip-path="url(#e7775c9eda)"><path fill="#1f48ff" d="M 0.605469 11.691406 L 0.605469 0.558594 L 155.511719 0.558594 L 155.511719 11.691406 Z M 0.605469 11.691406 " fill-opacity="1" fill-rule="nonzero"/></g></g></g></g><g clip-path="url(#4e4872d413)"><g clip-path="url(#04105a52de)"><g transform="matrix(1, 0, 0, 1, 124, 47)"><g clip-path="url(#b908d27ab7)"><g clip-path="url(#40a61d1d8f)"><g clip-path="url(#d1a15c918d)"><path fill="#ffffff" d="M 0.234375 4.730469 L 10.480469 0.363281 L 33.476562 54.355469 L 23.230469 58.71875 Z M 0.234375 4.730469 " fill-opacity="1" fill-rule="nonzero"/></g></g></g></g></g></g><g clip-path="url(#7d1769944b)"><g clip-path="url(#1f6a7fd888)"><g transform="matrix(1, 0, 0, 1, 218, 270)"><g clip-path="url(#cdba9ef1cc)"><g clip-path="url(#df40b2f300)"><g clip-path="url(#d02203d68e)"><path fill="#ffffff" d="M 0.5 4.90625 L 10.746094 0.542969 L 33.742188 54.53125 L 23.496094 58.894531 Z M 0.5 4.90625 " fill-opacity="1" fill-rule="nonzero"/></g></g></g></g></g></g><g clip-path="url(#291abda816)"><g clip-path="url(#838705393b)"><g transform="matrix(1, 0, 0, 1, 48, 219)"><g clip-path="url(#fc3c38fa2e)"><g clip-path="url(#3f6a249355)"><g clip-path="url(#59d6132502)"><path fill="#ffffff" d="M 4.898438 33.171875 L 0.535156 22.925781 L 54.042969 0.136719 L 58.410156 10.382812 Z M 4.898438 33.171875 " fill-opacity="1" fill-rule="nonzero"/></g></g></g></g></g></g><g clip-path="url(#ace29d6b19)"><g clip-path="url(#b749884337)"><g transform="matrix(1, 0, 0, 1, 269, 124)"><g clip-path="url(#434b85354a)"><g clip-path="url(#11c7bfb2ee)"><g clip-path="url(#2a4691b37d)"><path fill="#ffffff" d="M 5.214844 33.113281 L 0.851562 22.867188 L 54.359375 0.0742188 L 58.722656 10.320312 Z M 5.214844 33.113281 " fill-opacity="1" fill-rule="nonzero"/></g></g></g></g></g></g><g clip-path="url(#a79698b4dc)"><g clip-path="url(#ef9ad1903d)"><g transform="matrix(1, 0, 0, 1, 78, 77)"><g clip-path="url(#04cd3e0329)"><g clip-path="url(#989d999373)"><g clip-path="url(#4ed04625bd)"><path fill="#ffffff" d="M 0.601562 8.757812 L 8.476562 0.882812 L 49.570312 41.980469 L 41.695312 49.855469 Z M 0.601562 8.757812 " fill-opacity="1" fill-rule="nonzero"/></g></g></g></g></g></g><g clip-path="url(#063fa71a1d)"><g clip-path="url(#6394d54c2b)"><g transform="matrix(1, 0, 0, 1, 248, 249)"><g clip-path="url(#550e60569c)"><g clip-path="url(#5e68e8e4e7)"><g clip-path="url(#9a219bbb6e)"><path fill="#ffffff" d="M 0.699219 8.289062 L 8.574219 0.414062 L 49.667969 41.507812 L 41.792969 49.382812 Z M 0.699219 8.289062 " fill-opacity="1" fill-rule="nonzero"/></g></g></g></g></g></g><g clip-path="url(#51a6f95cf2)"><g clip-path="url(#b32808b20c)"><g transform="matrix(1, 0, 0, 1, 78, 249)"><g clip-path="url(#ad1615a64e)"><g clip-path="url(#e845b75bb2)"><g clip-path="url(#c1bfd72e61)"><path fill="#ffffff" d="M 8.058594 49.574219 L 0.1875 41.699219 L 41.679688 0.203125 L 49.554688 8.078125 Z M 8.058594 49.574219 " fill-opacity="1" fill-rule="nonzero"/></g></g></g></g></g></g><g clip-path="url(#c4817cc17e)"><g clip-path="url(#f667ce5244)"><g transform="matrix(1, 0, 0, 1, 248, 77)"><g clip-path="url(#0c57aac7ab)"><g clip-path="url(#1c30c8297b)"><g clip-path="url(#ae7c419145)"><path fill="#ffffff" d="M 8.15625 50.042969 L 0.285156 42.167969 L 41.777344 0.675781 L 49.652344 8.546875 Z M 8.15625 50.042969 " fill-opacity="1" fill-rule="nonzero"/></g></g></g></g></g></g><g clip-path="url(#b34fbb8057)"><g clip-path="url(#afc3097184)"><g transform="matrix(1, 0, 0, 1, 47, 126)"><g clip-path="url(#5f23f419fd)"><g clip-path="url(#f106d6ff20)"><g clip-path="url(#80758d98c9)"><path fill="#ffffff" d="M 0.5 11.136719 L 4.660156 0.804688 L 58.613281 22.527344 L 54.453125 32.855469 Z M 0.5 11.136719 " fill-opacity="1" fill-rule="nonzero"/></g></g></g></g></g></g><g clip-path="url(#de1ecb3114)"><g clip-path="url(#852efdfcc3)"><g transform="matrix(1, 0, 0, 1, 270, 217)"><g clip-path="url(#33a824c471)"><g clip-path="url(#f4e38b8e0d)"><g clip-path="url(#1481929242)"><path fill="#ffffff" d="M 0.648438 10.730469 L 4.808594 0.398438 L 58.761719 22.117188 L 54.601562 32.449219 Z M 0.648438 10.730469 " fill-opacity="1" fill-rule="nonzero"/></g></g></g></g></g></g><g clip-path="url(#c4711be897)"><g clip-path="url(#7a229f7109)"><g transform="matrix(1, 0, 0, 1, 126, 271)"><g clip-path="url(#4bad633648)"><g clip-path="url(#63f19dc893)"><g clip-path="url(#6501c3920a)"><path fill="#ffffff" d="M 11.277344 58.933594 L 0.949219 54.777344 L 22.863281 0.339844 L 33.195312 4.496094 Z M 11.277344 58.933594 " fill-opacity="1" fill-rule="nonzero"/></g></g></g></g></g></g><g clip-path="url(#24718b29f7)"><g clip-path="url(#95b1d8c805)"><g transform="matrix(1, 0, 0, 1, 216, 46)"><g clip-path="url(#11fa824ae6)"><g clip-path="url(#4fb47614e0)"><g clip-path="url(#7f0fe4beaa)"><path fill="#ffffff" d="M 11.113281 58.90625 L 0.785156 54.75 L 22.699219 0.3125 L 33.03125 4.46875 Z M 11.113281 58.90625 " fill-opacity="1" fill-rule="nonzero"/></g></g></g></g></g></g></svg>